<mxfile host="app.diagrams.net" modified="2021-03-27T04:08:46.882Z" agent="5.0 (Windows NT 10.0; Win64; x64) AppleWebKit/537.36 (KHTML, like Gecko) Chrome/89.0.4389.90 Safari/537.36" etag="39hDDyg6wYaMHoGlH_ZC" version="14.5.3" type="github">
  <diagram id="C5RBs43oDa-KdzZeNtuy" name="Page-1">
    <mxGraphModel dx="868" dy="482" grid="1" gridSize="10" guides="1" tooltips="1" connect="1" arrows="1" fold="1" page="1" pageScale="1" pageWidth="827" pageHeight="1169" math="0" shadow="0">
      <root>
        <mxCell id="WIyWlLk6GJQsqaUBKTNV-0" />
        <mxCell id="WIyWlLk6GJQsqaUBKTNV-1" parent="WIyWlLk6GJQsqaUBKTNV-0" />
        <mxCell id="JF5rWnVHhKtfHpgvyjQA-11" style="edgeStyle=orthogonalEdgeStyle;rounded=0;orthogonalLoop=1;jettySize=auto;html=1;" parent="WIyWlLk6GJQsqaUBKTNV-1" source="WIyWlLk6GJQsqaUBKTNV-3" edge="1">
          <mxGeometry relative="1" as="geometry">
            <mxPoint x="210" y="170" as="targetPoint" />
          </mxGeometry>
        </mxCell>
        <mxCell id="WIyWlLk6GJQsqaUBKTNV-3" value="&lt;font style=&quot;font-size: 13px&quot;&gt;Construir programa ejecutado por Node.js&lt;/font&gt;" style="rounded=1;whiteSpace=wrap;html=1;fontSize=12;glass=0;strokeWidth=1;shadow=0;fillColor=#E9FF21;fontFamily=Tahoma;strokeColor=#FFEF0F;fontColor=#0A0A0A;" parent="WIyWlLk6GJQsqaUBKTNV-1" vertex="1">
          <mxGeometry x="150" y="70" width="120" height="50" as="geometry" />
        </mxCell>
        <mxCell id="JF5rWnVHhKtfHpgvyjQA-0" value="Clonar y folkear el repositorio de gitHub&lt;br&gt;y crear plan de acción." style="rounded=0;whiteSpace=wrap;html=1;fillColor=#00994D;fontFamily=Tahoma;fontColor=#C7E5FF;" parent="WIyWlLk6GJQsqaUBKTNV-1" vertex="1">
          <mxGeometry x="150" y="180" width="120" height="60" as="geometry" />
        </mxCell>
        <mxCell id="JF5rWnVHhKtfHpgvyjQA-2" value="Crear los archivos del proyecto." style="rounded=0;whiteSpace=wrap;html=1;fillColor=#00994D;fontColor=#C7E5FF;" parent="WIyWlLk6GJQsqaUBKTNV-1" vertex="1">
          <mxGeometry x="150" y="300" width="120" height="60" as="geometry" />
        </mxCell>
        <mxCell id="JF5rWnVHhKtfHpgvyjQA-5" value="" style="endArrow=classic;html=1;" parent="WIyWlLk6GJQsqaUBKTNV-1" edge="1">
          <mxGeometry width="50" height="50" relative="1" as="geometry">
            <mxPoint x="209.5" y="380" as="sourcePoint" />
            <mxPoint x="209.5" y="440" as="targetPoint" />
            <Array as="points">
              <mxPoint x="209.5" y="420" />
            </Array>
          </mxGeometry>
        </mxCell>
        <mxCell id="JF5rWnVHhKtfHpgvyjQA-6" value="El modulo se debe de importar a otros scripts de Node.js" style="rounded=0;whiteSpace=wrap;html=1;fillColor=#00994D;fontColor=#C7E5FF;fontFamily=Tahoma;" parent="WIyWlLk6GJQsqaUBKTNV-1" vertex="1">
          <mxGeometry x="150" y="450" width="120" height="60" as="geometry" />
        </mxCell>
        <mxCell id="JF5rWnVHhKtfHpgvyjQA-7" value="" style="endArrow=classic;html=1;" parent="WIyWlLk6GJQsqaUBKTNV-1" edge="1">
          <mxGeometry width="50" height="50" relative="1" as="geometry">
            <mxPoint x="209.5" y="540" as="sourcePoint" />
            <mxPoint x="209.5" y="600" as="targetPoint" />
            <Array as="points">
              <mxPoint x="209.5" y="580" />
            </Array>
          </mxGeometry>
        </mxCell>
        <mxCell id="JF5rWnVHhKtfHpgvyjQA-8" value="La función debe retornarse en promesa que resuelva a un arreglo." style="rounded=0;whiteSpace=wrap;html=1;fillColor=#00994D;fontFamily=Tahoma;fontColor=#C7E5FF;" parent="WIyWlLk6GJQsqaUBKTNV-1" vertex="1">
          <mxGeometry x="150" y="610" width="120" height="60" as="geometry" />
        </mxCell>
        <mxCell id="JF5rWnVHhKtfHpgvyjQA-9" value="CLI&lt;br&gt;El ejecutable se debe ejecutar:&lt;br&gt;md-links &amp;lt;path-to-file&amp;gt;" style="rounded=0;whiteSpace=wrap;html=1;fillColor=#00994D;fontColor=#C7E5FF;fontFamily=Tahoma;" parent="WIyWlLk6GJQsqaUBKTNV-1" vertex="1">
          <mxGeometry x="150" y="750" width="120" height="70" as="geometry" />
        </mxCell>
        <mxCell id="JF5rWnVHhKtfHpgvyjQA-10" value="" style="endArrow=classic;html=1;" parent="WIyWlLk6GJQsqaUBKTNV-1" edge="1">
          <mxGeometry width="50" height="50" relative="1" as="geometry">
            <mxPoint x="209.5" y="680" as="sourcePoint" />
            <mxPoint x="209.5" y="740" as="targetPoint" />
            <Array as="points">
              <mxPoint x="209.5" y="720" />
            </Array>
          </mxGeometry>
        </mxCell>
        <mxCell id="JF5rWnVHhKtfHpgvyjQA-17" value="&lt;span style=&quot;&quot;&gt;Que el CLI identifique el archivo MD.&lt;/span&gt;" style="rounded=0;whiteSpace=wrap;html=1;fillColor=#00994D;fontFamily=Tahoma;fontColor=#C7E5FF;" parent="WIyWlLk6GJQsqaUBKTNV-1" vertex="1">
          <mxGeometry x="430" y="760" width="120" height="60" as="geometry" />
        </mxCell>
        <mxCell id="JF5rWnVHhKtfHpgvyjQA-19" value="Identificar el MD por la ruta que recibe el argumento." style="rounded=0;whiteSpace=wrap;html=1;fillColor=#00994D;fontColor=#C7E5FF;fontFamily=Tahoma;" parent="WIyWlLk6GJQsqaUBKTNV-1" vertex="1">
          <mxGeometry x="430" y="620" width="120" height="60" as="geometry" />
        </mxCell>
        <mxCell id="JF5rWnVHhKtfHpgvyjQA-21" value="Imprimir los links que vaya encontrando el CLI&lt;br&gt;Junto con la ruta y texto que contiene." style="rounded=0;whiteSpace=wrap;html=1;fillColor=#00994D;fontColor=#C7E5FF;fontFamily=Tahoma;" parent="WIyWlLk6GJQsqaUBKTNV-1" vertex="1">
          <mxGeometry x="430" y="440" width="120" height="80" as="geometry" />
        </mxCell>
        <mxCell id="JF5rWnVHhKtfHpgvyjQA-30" value="Usar Validate, start." style="rounded=0;whiteSpace=wrap;html=1;fillColor=#00994D;fontColor=#C7E5FF;fontFamily=Tahoma;" parent="WIyWlLk6GJQsqaUBKTNV-1" vertex="1">
          <mxGeometry x="430" y="300" width="120" height="60" as="geometry" />
        </mxCell>
        <mxCell id="JF5rWnVHhKtfHpgvyjQA-32" value="Entregar un módulo instalable.&lt;br&gt;&lt;span style=&quot;font-size: 13.6px; background-color: rgba(27, 31, 35, 0.05);&quot;&gt;npm install &amp;lt;github-user&amp;gt;/md-links.&lt;br&gt;Incluir ejecutable como interfaz que se pueda importar con require.&lt;br&gt;&lt;/span&gt;" style="rounded=1;whiteSpace=wrap;html=1;fontColor=#141414;fontFamily=Tahoma;fillColor=#E9FF21;" parent="WIyWlLk6GJQsqaUBKTNV-1" vertex="1">
          <mxGeometry x="390" y="140" width="200" height="90" as="geometry" />
        </mxCell>
        <mxCell id="JF5rWnVHhKtfHpgvyjQA-35" value="" style="endArrow=classic;html=1;fontFamily=Tahoma;fontColor=#141414;" parent="WIyWlLk6GJQsqaUBKTNV-1" edge="1">
          <mxGeometry width="50" height="50" relative="1" as="geometry">
            <mxPoint x="489" y="740" as="sourcePoint" />
            <mxPoint x="489" y="690" as="targetPoint" />
          </mxGeometry>
        </mxCell>
        <mxCell id="JF5rWnVHhKtfHpgvyjQA-37" value="" style="endArrow=classic;html=1;fontFamily=Tahoma;fontColor=#141414;" parent="WIyWlLk6GJQsqaUBKTNV-1" edge="1">
          <mxGeometry width="50" height="50" relative="1" as="geometry">
            <mxPoint x="489" y="590" as="sourcePoint" />
            <mxPoint x="489" y="540" as="targetPoint" />
          </mxGeometry>
        </mxCell>
        <mxCell id="JF5rWnVHhKtfHpgvyjQA-38" value="" style="endArrow=classic;html=1;fontFamily=Tahoma;fontColor=#141414;" parent="WIyWlLk6GJQsqaUBKTNV-1" edge="1">
          <mxGeometry width="50" height="50" relative="1" as="geometry">
            <mxPoint x="489" y="420" as="sourcePoint" />
            <mxPoint x="489" y="370" as="targetPoint" />
          </mxGeometry>
        </mxCell>
        <mxCell id="JF5rWnVHhKtfHpgvyjQA-39" value="" style="endArrow=classic;html=1;fontFamily=Tahoma;fontColor=#141414;" parent="WIyWlLk6GJQsqaUBKTNV-1" edge="1">
          <mxGeometry width="50" height="50" relative="1" as="geometry">
            <mxPoint x="489" y="290" as="sourcePoint" />
            <mxPoint x="489" y="240" as="targetPoint" />
          </mxGeometry>
        </mxCell>
        <mxCell id="JF5rWnVHhKtfHpgvyjQA-42" value="" style="endArrow=classic;html=1;fontFamily=Tahoma;fontColor=#141414;" parent="WIyWlLk6GJQsqaUBKTNV-1" edge="1">
          <mxGeometry width="50" height="50" relative="1" as="geometry">
            <mxPoint x="200" y="840" as="sourcePoint" />
            <mxPoint x="490" y="830" as="targetPoint" />
            <Array as="points">
              <mxPoint x="200" y="880" />
              <mxPoint x="490" y="880" />
            </Array>
          </mxGeometry>
        </mxCell>
        <mxCell id="JF5rWnVHhKtfHpgvyjQA-43" style="edgeStyle=orthogonalEdgeStyle;rounded=0;orthogonalLoop=1;jettySize=auto;html=1;" parent="WIyWlLk6GJQsqaUBKTNV-1" edge="1">
          <mxGeometry relative="1" as="geometry">
            <mxPoint x="209.5" y="300" as="targetPoint" />
            <mxPoint x="209.5" y="250" as="sourcePoint" />
          </mxGeometry>
        </mxCell>
      </root>
    </mxGraphModel>
  </diagram>
</mxfile>
